<?xml version="1.0" encoding="utf-8"?>
<!-- Generator: Adobe Illustrator 16.0.0, SVG Export Plug-In . SVG Version: 6.00 Build 0)  -->
<!DOCTYPE svg PUBLIC "-//W3C//DTD SVG 1.1//EN" "http://www.w3.org/Graphics/SVG/1.1/DTD/svg11.dtd">
<svg version="1.1" id="Layer_1" xmlns="http://www.w3.org/2000/svg" xmlns:xlink="http://www.w3.org/1999/xlink" x="0px" y="0px"
	 width="419.531px" height="595.281px" viewBox="0 0 419.531 595.281" enable-background="new 0 0 419.531 595.281"
	 xml:space="preserve">
<g>
	
		<image overflow="visible" opacity="0.75" width="450" height="141" xlink:href="9F127E1B.png"  transform="matrix(1 0 0 1 -8.7344 245.1404)">
	</image>
	<g>
		<g>
			<g enable-background="new    ">
				<path d="M15.19,285.528l0.322,1.641h0.176l0.322-1.553l7.119-31.846h8.76l-11.924,42.655h-8.672L-0.63,253.77h8.76
					L15.19,285.528z"/>
				<path d="M44.135,296.427h-8.291V253.77h8.291V296.427z"/>
				<path d="M59.399,289.776h15.586v6.649H51.049V253.77h8.35V289.776z"/>
				<path d="M87.495,289.776h15.586v6.649H79.145V253.77h8.35V289.776z"/>
				<path d="M115.971,296.427h-8.291V253.77h8.291V296.427z"/>
				<path d="M145.561,277.706h-14.326v12.07h16.846v6.649h-25.195V253.77h25.137v6.649h-16.787v10.636h14.326L145.561,277.706
					L145.561,277.706z"/>
				<path d="M160.766,279.464v16.964h-8.32V253.8h13.916c4.199,0,7.495,1.108,9.888,3.325c2.392,2.217,3.589,5.298,3.589,9.243
					c0,2.228-0.498,4.146-1.494,5.757c-0.996,1.611-2.451,2.896-4.365,3.854c2.187,0.742,3.765,1.973,4.731,3.69
					c0.966,1.719,1.45,3.867,1.45,6.445v3.018c0,1.173,0.136,2.428,0.41,3.766c0.273,1.338,0.751,2.31,1.436,2.915v0.615h-8.613
					c-0.684-0.625-1.113-1.642-1.289-3.048c-0.176-1.405-0.264-2.842-0.264-4.307v-2.9c0-2.129-0.435-3.778-1.304-4.95
					s-2.114-1.759-3.735-1.759H160.766L160.766,279.464z M160.766,272.813h5.566c1.699,0,2.988-0.519,3.867-1.554
					c0.879-1.034,1.318-2.51,1.318-4.424c0-1.953-0.439-3.506-1.318-4.657c-0.879-1.152-2.158-1.729-3.838-1.729h-5.596
					L160.766,272.813L160.766,272.813z"/>
				<path d="M197.124,253.77l7.646,31.317h0.176l7.734-31.317h10.869v42.656h-8.291v-12.394l0.703-16.582l-0.176-0.029
					l-8.144,29.005h-5.537l-8.057-28.771l-0.176,0.029l0.732,16.348v12.394h-8.291V253.77H197.124z"/>
				<path d="M252.523,277.706h-14.326v12.07h16.846v6.649h-25.195V253.77h25.137v6.649h-16.787v10.636h14.326V277.706
					L252.523,277.706z"/>
				<path d="M280.883,289.776h15.586v6.649h-23.936V253.77h8.35V289.776z"/>
				<path d="M323.305,277.706h-14.325v12.07h16.846v6.649H300.63V253.77h25.137v6.649H308.98v10.636h14.325L323.305,277.706
					L323.305,277.706z"/>
				<path d="M358.783,280.987h0.176l4.6-27.217h8.086l-8.231,42.655h-7.764l-6.007-26.133h-0.176l-5.947,26.133h-7.733
					l-8.232-42.655h8.086l4.601,27.217h0.176l6.152-27.217h5.977L358.783,280.987z"/>
				<path d="M384.242,296.427h-8.291V253.77h8.291V296.427z"/>
				<path d="M410.111,285.294c0-1.66-0.431-2.974-1.289-3.939c-0.859-0.966-2.373-1.919-4.541-2.856
					c-4.435-1.543-7.758-3.296-9.976-5.259c-2.217-1.963-3.325-4.712-3.325-8.247c0-3.496,1.288-6.343,3.866-8.54
					s5.869-3.296,9.873-3.296c4.063,0,7.363,1.226,9.902,3.677s3.77,5.542,3.691,9.272l-0.06,0.176h-8.086
					c0-1.953-0.488-3.535-1.465-4.746c-0.978-1.211-2.354-1.816-4.131-1.816c-1.66,0-2.953,0.504-3.881,1.51
					c-0.929,1.006-1.394,2.271-1.394,3.794c0,1.406,0.519,2.563,1.553,3.472c1.035,0.909,2.832,1.919,5.392,3.032
					c4.043,1.367,7.086,3.101,9.127,5.2c2.041,2.099,3.061,4.937,3.061,8.511c0,3.691-1.229,6.582-3.69,8.672
					s-5.732,3.135-9.814,3.135c-4.063,0-7.582-1.187-10.561-3.56c-2.979-2.373-4.42-5.776-4.322-10.21l0.059-0.176h8.115
					c0,2.637,0.558,4.53,1.67,5.684c1.113,1.153,2.793,1.729,5.039,1.729c1.758,0,3.063-0.47,3.912-1.406
					C409.686,288.168,410.111,286.895,410.111,285.294z"/>
			</g>
			<g enable-background="new    ">
				<path d="M49.422,352.789c-0.586,1.031-1.538,1.957-2.856,2.777s-3.003,1.229-5.054,1.229c-2.684,0-4.846-0.813-6.486-2.442
					c-1.64-1.629-2.461-3.949-2.461-6.961v-7.595c0-2.965,0.779-5.262,2.338-6.891c1.559-1.629,3.627-2.443,6.205-2.443
					c2.613,0,4.611,0.659,5.994,1.979s2.121,3.167,2.215,5.546l-0.035,0.105h-3.375c-0.059-1.605-0.478-2.827-1.257-3.665
					c-0.779-0.839-1.942-1.258-3.489-1.258c-1.559,0-2.789,0.562-3.691,1.683c-0.902,1.121-1.354,2.75-1.354,4.886v7.642
					c0,2.185,0.483,3.849,1.45,4.992c0.967,1.145,2.282,1.717,3.946,1.717c1.219,0,2.165-0.208,2.839-0.623
					c0.674-0.416,1.175-0.946,1.503-1.592v-5.817h-4.377v-2.584h7.945V352.789z"/>
				<path d="M60.742,356.797c-2.262,0-4.072-0.784-5.432-2.354s-2.039-3.58-2.039-6.029v-2.776c0-2.484,0.665-4.535,1.995-6.152
					s3.021-2.426,5.071-2.426c2.156,0,3.814,0.734,4.975,2.206c1.161,1.471,1.74,3.447,1.74,5.933v2.461h-10.23v0.756
					c0,1.642,0.36,2.997,1.081,4.069c0.721,1.072,1.743,1.607,3.067,1.607c0.984,0,1.828-0.154,2.531-0.466
					c0.703-0.311,1.371-0.765,2.004-1.361l1.125,2.215c-0.598,0.68-1.4,1.235-2.408,1.67
					C63.214,356.582,62.055,356.797,60.742,356.797z M60.338,339.763c-1.031,0-1.857,0.504-2.479,1.513s-0.967,2.286-1.037,3.831
					h6.697v-0.727c0-1.355-0.27-2.465-0.809-3.325C62.171,340.194,61.381,339.763,60.338,339.763z M61.393,330.025h3.973
					l0.035,0.088l-4.184,4.588h-2.848L61.393,330.025z"/>
				<path d="M69.514,345.722c0-2.521,0.659-4.595,1.978-6.224c1.319-1.629,3.126-2.442,5.423-2.442c2.285,0,4.09,0.812,5.414,2.435
					c1.324,1.623,1.986,3.7,1.986,6.231v2.426c0,2.543-0.659,4.62-1.978,6.23c-1.319,1.611-3.12,2.417-5.405,2.417
					c-2.309,0-4.122-0.806-5.44-2.417c-1.318-1.61-1.978-3.688-1.978-6.23V345.722z M73.082,348.134
					c0,1.738,0.316,3.166,0.949,4.282c0.633,1.116,1.6,1.674,2.9,1.674c1.266,0,2.218-0.558,2.856-1.674
					c0.638-1.116,0.958-2.544,0.958-4.282v-2.432c0-1.715-0.319-3.134-0.958-4.256c-0.639-1.121-1.597-1.683-2.874-1.683
					c-1.289,0-2.25,0.559-2.883,1.674c-0.633,1.116-0.949,2.538-0.949,4.265L73.082,348.134L73.082,348.134z"/>
				<path d="M90.959,337.408l0.193,2.584c0.516-0.938,1.172-1.661,1.969-2.171s1.729-0.765,2.795-0.765
					c1.043,0,1.939,0.29,2.689,0.869c0.75,0.58,1.318,1.463,1.705,2.646c0.492-1.102,1.148-1.963,1.969-2.584
					c0.821-0.621,1.793-0.932,2.918-0.932c1.617,0,2.892,0.665,3.823,1.994c0.931,1.33,1.397,3.354,1.397,6.073v11.303h-3.568
					v-11.319c0-1.945-0.24-3.312-0.721-4.097c-0.481-0.784-1.189-1.178-2.127-1.178c-0.809,0-1.485,0.309-2.03,0.923
					c-0.545,0.615-0.94,1.434-1.187,2.452c-0.012-0.094-0.006,0.057,0.018,0.448c0.024,0.392,0.035,0.677,0.035,0.853v11.918h-3.551
					v-11.319c0-1.888-0.246-3.237-0.738-4.052c-0.492-0.815-1.207-1.223-2.145-1.223c-0.75,0-1.389,0.208-1.916,0.624
					c-0.527,0.416-0.938,0.993-1.23,1.731v14.237h-3.551v-19.02h3.253V337.408z"/>
				<path d="M124.199,356.427c-0.129-0.435-0.234-0.858-0.316-1.274s-0.135-0.835-0.158-1.257c-0.527,0.854-1.189,1.553-1.986,2.092
					c-0.797,0.539-1.682,0.809-2.654,0.809c-1.605,0-2.862-0.507-3.771-1.521s-1.362-2.37-1.362-4.069
					c0-1.815,0.618-3.243,1.854-4.279c1.236-1.037,2.974-1.557,5.212-1.557h2.654v-1.938c0-1.152-0.258-2.053-0.773-2.698
					c-0.515-0.646-1.248-0.97-2.197-0.97c-0.855,0-1.544,0.291-2.065,0.873c-0.521,0.583-0.782,1.311-0.782,2.184l-3.393-0.018
					l-0.053-0.105c-0.059-1.469,0.527-2.776,1.758-3.922c1.231-1.146,2.818-1.719,4.764-1.719c1.875,0,3.396,0.554,4.562,1.661
					c1.166,1.106,1.749,2.687,1.749,4.736v8.824c0,0.738,0.044,1.45,0.132,2.136c0.088,0.687,0.231,1.356,0.431,2.014
					L124.199,356.427L124.199,356.427z M119.893,354.09c0.832,0,1.591-0.247,2.276-0.741c0.685-0.495,1.187-1.113,1.503-1.855
					v-3.906h-2.707c-1.09,0-1.937,0.352-2.54,1.053c-0.603,0.7-0.905,1.558-0.905,2.57c0,0.86,0.205,1.557,0.615,2.086
					C118.545,353.826,119.131,354.09,119.893,354.09z"/>
				<path d="M135.854,332.679v4.729h2.971v2.549h-2.971v11.32c0,0.984,0.146,1.685,0.439,2.101s0.674,0.624,1.143,0.624
					c0.281,0,0.542-0.018,0.782-0.053c0.24-0.035,0.524-0.088,0.853-0.158l0.369,2.461c-0.398,0.164-0.847,0.296-1.345,0.396
					c-0.498,0.1-1.011,0.148-1.538,0.148c-1.348,0-2.394-0.441-3.138-1.326c-0.744-0.886-1.116-2.282-1.116-4.192v-11.32h-2.479
					v-2.549h2.479v-4.729L135.854,332.679L135.854,332.679z"/>
				<path d="M146.137,332.416h-3.568v-3.41h3.568V332.416z M146.137,356.427h-3.568v-19.021h3.568V356.427z"/>
				<path d="M157.07,354.09c0.891,0,1.641-0.343,2.25-1.027c0.609-0.686,0.914-1.604,0.914-2.751h3.199l0.035,0.104
					c0.047,1.793-0.56,3.306-1.819,4.535c-1.259,1.23-2.786,1.846-4.579,1.846c-2.367,0-4.181-0.803-5.44-2.407
					c-1.259-1.605-1.89-3.65-1.89-6.136v-2.618c0-2.484,0.63-4.535,1.89-6.152c1.26-1.617,3.067-2.426,5.423-2.426
					c1.922,0,3.483,0.642,4.685,1.925c1.202,1.283,1.784,2.943,1.749,4.982l-0.053,0.105h-3.199c0-1.276-0.29-2.313-0.87-3.11
					c-0.58-0.797-1.351-1.195-2.312-1.195c-1.359,0-2.323,0.553-2.892,1.655c-0.568,1.104-0.853,2.503-0.853,4.194v2.625
					c0,1.716,0.284,3.119,0.853,4.212C154.73,353.544,155.699,354.09,157.07,354.09z"/>
				<path d="M170.447,332.416h-3.568v-3.41h3.568V332.416z M170.447,356.427h-3.568v-19.021h3.568V356.427z"/>
				<path d="M181.645,356.797c-2.262,0-4.072-0.784-5.432-2.354c-1.36-1.57-2.039-3.58-2.039-6.029v-2.776
					c0-2.484,0.665-4.535,1.995-6.152s3.021-2.426,5.071-2.426c2.156,0,3.814,0.734,4.975,2.206c1.161,1.471,1.74,3.447,1.74,5.933
					v2.461h-10.23v0.756c0,1.642,0.36,2.997,1.081,4.069c0.721,1.072,1.743,1.607,3.067,1.607c0.984,0,1.828-0.154,2.531-0.466
					c0.703-0.311,1.371-0.765,2.004-1.361l1.125,2.215c-0.598,0.68-1.4,1.235-2.408,1.67
					C184.117,356.582,182.957,356.797,181.645,356.797z M181.24,339.763c-1.031,0-1.857,0.504-2.479,1.513
					c-0.622,1.009-0.967,2.286-1.037,3.831h6.697v-0.727c0-1.355-0.27-2.465-0.809-3.325
					C183.073,340.194,182.283,339.763,181.24,339.763z"/>
				<path d="M194.354,337.408l0.193,2.813c0.527-0.996,1.195-1.772,2.004-2.329c0.809-0.558,1.723-0.835,2.742-0.835
					c1.664,0,2.959,0.614,3.885,1.846c0.926,1.23,1.389,3.141,1.389,5.729v11.796h-3.568v-11.761c0-1.77-0.252-3.018-0.756-3.744
					c-0.504-0.726-1.266-1.09-2.285-1.09c-0.727,0-1.371,0.227-1.934,0.678c-0.563,0.45-1.02,1.063-1.371,1.837v14.08h-3.568
					v-19.021H194.354L194.354,337.408z"/>
				<path d="M216.889,356.427v-25.595h7.031c2.719,0,4.938,1.025,6.653,3.076s2.575,4.688,2.575,7.91v3.639
					c0,3.234-0.858,5.871-2.575,7.91c-1.718,2.039-3.935,3.06-6.653,3.06H216.889z M220.457,333.541v20.181h3.34
					c1.793,0,3.208-0.77,4.245-2.308s1.556-3.526,1.556-5.97v-3.68c0-2.419-0.519-4.395-1.556-5.927
					c-1.037-1.531-2.452-2.298-4.245-2.298L220.457,333.541L220.457,333.541z"/>
				<path d="M243.607,356.797c-2.262,0-4.072-0.784-5.433-2.354s-2.039-3.58-2.039-6.029v-2.776c0-2.484,0.665-4.535,1.995-6.152
					s3.021-2.426,5.071-2.426c2.155,0,3.813,0.734,4.975,2.206c1.161,1.471,1.74,3.447,1.74,5.933v2.461h-10.229v0.756
					c0,1.642,0.359,2.997,1.08,4.069s1.743,1.607,3.067,1.607c0.983,0,1.828-0.154,2.531-0.466c0.702-0.311,1.37-0.765,2.004-1.361
					l1.125,2.215c-0.599,0.68-1.399,1.235-2.408,1.67C246.079,356.582,244.92,356.797,243.607,356.797z M243.203,339.763
					c-1.031,0-1.857,0.504-2.479,1.513c-0.623,1.009-0.968,2.286-1.037,3.831h6.696v-0.727c0-1.355-0.271-2.465-0.809-3.325
					C245.036,340.194,244.246,339.763,243.203,339.763z M244.258,330.025h3.973l0.035,0.088l-4.184,4.588h-2.848L244.258,330.025z"
					/>
				<path d="M258.373,350.715l0.299,1.478h0.105l0.299-1.478l3.234-13.307h3.674l-5.695,19.021h-3.146l-5.729-19.021h3.69
					L258.373,350.715z"/>
				<path d="M275.178,356.797c-2.262,0-4.072-0.784-5.432-2.354c-1.36-1.57-2.039-3.58-2.039-6.029v-2.776
					c0-2.484,0.665-4.535,1.995-6.152s3.021-2.426,5.071-2.426c2.156,0,3.813,0.734,4.975,2.206c1.161,1.471,1.74,3.447,1.74,5.933
					v2.461h-10.23v0.756c0,1.642,0.36,2.997,1.081,4.069c0.722,1.072,1.743,1.607,3.067,1.607c0.984,0,1.828-0.154,2.531-0.466
					c0.703-0.311,1.371-0.765,2.004-1.361l1.125,2.215c-0.599,0.68-1.4,1.235-2.408,1.67
					C277.65,356.582,276.49,356.797,275.178,356.797z M274.773,339.763c-1.031,0-1.857,0.504-2.479,1.513s-0.967,2.286-1.037,3.831
					h6.697v-0.727c0-1.355-0.271-2.465-0.81-3.325C276.605,340.194,275.816,339.763,274.773,339.763z"/>
				<path d="M288.449,356.427h-3.568v-27.423h3.568V356.427z"/>
				<path d="M292.07,345.722c0-2.521,0.658-4.595,1.978-6.224s3.126-2.442,5.423-2.442c2.285,0,4.09,0.812,5.414,2.435
					s1.986,3.7,1.986,6.231v2.426c0,2.543-0.659,4.62-1.979,6.23c-1.318,1.611-3.119,2.417-5.404,2.417
					c-2.309,0-4.122-0.806-5.44-2.417c-1.317-1.61-1.978-3.688-1.978-6.23V345.722z M295.639,348.134
					c0,1.738,0.316,3.166,0.949,4.282s1.601,1.674,2.9,1.674c1.266,0,2.218-0.558,2.855-1.674c0.639-1.116,0.958-2.544,0.958-4.282
					v-2.432c0-1.715-0.318-3.134-0.958-4.256c-0.639-1.121-1.597-1.683-2.874-1.683c-1.289,0-2.249,0.559-2.883,1.674
					c-0.633,1.116-0.948,2.538-0.948,4.265V348.134L295.639,348.134z"/>
				<path d="M324.326,348.5c0,2.508-0.551,4.519-1.652,6.029c-1.101,1.511-2.631,2.268-4.588,2.268c-0.926,0-1.74-0.182-2.443-0.545
					c-0.702-0.362-1.307-0.896-1.811-1.6v9.088h-3.568v-26.332h3.183l0.229,2.18c0.504-0.809,1.119-1.433,1.846-1.872
					c0.728-0.438,1.57-0.658,2.531-0.658c1.98,0,3.521,0.832,4.623,2.496c1.103,1.663,1.652,3.866,1.652,6.608L324.326,348.5
					L324.326,348.5z M320.758,346.162c0-1.863-0.308-3.384-0.923-4.562c-0.615-1.179-1.532-1.768-2.751-1.768
					c-0.762,0-1.412,0.217-1.951,0.65c-0.539,0.433-0.973,1.024-1.301,1.774v9.615c0.316,0.715,0.744,1.263,1.283,1.645
					c0.539,0.381,1.201,0.57,1.985,0.57c1.23,0,2.147-0.513,2.751-1.538c0.604-1.024,0.905-2.376,0.905-4.052L320.758,346.162
					L320.758,346.162z"/>
				<path d="M341.816,348.5c0,2.508-0.552,4.519-1.652,6.029s-2.631,2.268-4.588,2.268c-0.926,0-1.74-0.182-2.443-0.545
					c-0.703-0.362-1.307-0.896-1.811-1.6v9.088h-3.568v-26.332h3.182l0.229,2.18c0.504-0.809,1.119-1.433,1.846-1.872
					c0.728-0.438,1.57-0.658,2.531-0.658c1.98,0,3.521,0.832,4.623,2.496c1.102,1.663,1.652,3.866,1.652,6.608L341.816,348.5
					L341.816,348.5z M338.248,346.162c0-1.863-0.308-3.384-0.923-4.562c-0.615-1.179-1.532-1.768-2.751-1.768
					c-0.763,0-1.412,0.217-1.951,0.65c-0.539,0.433-0.973,1.024-1.301,1.774v9.615c0.315,0.715,0.744,1.263,1.282,1.645
					c0.539,0.381,1.201,0.57,1.986,0.57c1.23,0,2.147-0.513,2.751-1.538c0.604-1.024,0.905-2.376,0.905-4.052L338.248,346.162
					L338.248,346.162z"/>
				<path d="M352.117,356.797c-2.262,0-4.072-0.784-5.433-2.354c-1.359-1.57-2.039-3.58-2.039-6.029v-2.776
					c0-2.484,0.665-4.535,1.995-6.152s3.021-2.426,5.071-2.426c2.156,0,3.814,0.734,4.975,2.206c1.161,1.471,1.74,3.447,1.74,5.933
					v2.461h-10.229v0.756c0,1.642,0.359,2.997,1.081,4.069c0.721,1.072,1.742,1.607,3.066,1.607c0.984,0,1.828-0.154,2.531-0.466
					c0.703-0.311,1.371-0.765,2.004-1.361l1.125,2.215c-0.598,0.68-1.4,1.235-2.408,1.67
					C354.589,356.582,353.43,356.797,352.117,356.797z M351.713,339.763c-1.031,0-1.856,0.504-2.479,1.513s-0.968,2.286-1.037,3.831
					h6.696v-0.727c0-1.355-0.27-2.465-0.809-3.325C353.546,340.194,352.756,339.763,351.713,339.763z"/>
				<path d="M371.629,353.879c-0.504,0.938-1.147,1.658-1.934,2.162s-1.688,0.756-2.707,0.756c-1.724,0-3.064-0.661-4.025-1.985
					s-1.44-3.381-1.44-6.17v-11.232h3.551v11.269c0,1.944,0.23,3.324,0.693,4.14c0.464,0.814,1.157,1.222,2.083,1.222
					c0.88,0,1.614-0.205,2.206-0.615c0.593-0.409,1.063-0.995,1.415-1.758V337.41h3.568v19.021h-3.182L371.629,353.879z"/>
				<path d="M387.273,340.414l-1.671-0.088c-0.737,0-1.351,0.223-1.837,0.668c-0.485,0.445-0.857,1.072-1.115,1.881v13.554h-3.568
					v-19.021h3.252l0.264,2.865c0.398-1.008,0.92-1.796,1.564-2.364c0.644-0.568,1.389-0.853,2.231-0.853
					c0.234,0,0.476,0.021,0.722,0.062s0.438,0.091,0.58,0.149L387.273,340.414z"/>
			</g>
			<g>
				<path d="M67.396,312.64c0,0,1.075-0.047,3.094-0.138c2.018-0.083,4.978-0.205,8.744-0.356
					c7.533-0.279,18.295-0.644,31.209-0.938c6.457-0.152,13.452-0.321,20.851-0.431c7.399-0.122,15.201-0.276,23.272-0.336
					c8.07-0.065,16.412-0.206,24.887-0.216c8.475-0.029,17.084-0.062,25.693-0.087c8.608,0.025,17.219,0.057,25.692,0.084
					c8.477,0.001,16.814,0.146,24.889,0.213c8.069,0.061,15.871,0.209,23.271,0.335c7.396,0.104,14.395,0.271,20.851,0.431
					c12.914,0.294,23.678,0.658,31.209,0.938c3.77,0.152,6.729,0.275,8.744,0.358c2.021,0.089,3.094,0.139,3.094,0.139
					s-1.073,0.047-3.094,0.136c-2.018,0.083-4.978,0.206-8.744,0.358c-7.531,0.28-18.295,0.646-31.209,0.938
					c-6.456,0.158-13.45,0.323-20.851,0.431c-7.398,0.126-15.201,0.274-23.271,0.335c-8.072,0.064-16.412,0.212-24.889,0.213
					c-8.477,0.027-17.084,0.059-25.692,0.085c-8.609-0.026-17.22-0.059-25.693-0.088c-8.475-0.01-16.815-0.147-24.887-0.216
					c-8.071-0.06-15.874-0.214-23.272-0.336c-7.397-0.104-14.394-0.272-20.851-0.431c-12.914-0.294-23.676-0.655-31.209-0.938
					c-3.768-0.151-6.727-0.273-8.744-0.356C68.471,312.687,67.396,312.64,67.396,312.64z"/>
			</g>
		</g>
		<g>
			<g>
				<path fill="#FFFFFF" d="M15.19,285.528l0.322,1.641h0.176l0.322-1.553l7.119-31.846h8.76l-11.924,42.655h-8.672L-0.63,253.77
					h8.76L15.19,285.528z"/>
				<path fill="#FFFFFF" d="M44.135,296.427h-8.291V253.77h8.291V296.427z"/>
				<path fill="#FFFFFF" d="M59.399,289.776h15.586v6.649H51.049V253.77h8.35V289.776z"/>
				<path fill="#FFFFFF" d="M87.495,289.776h15.586v6.649H79.145V253.77h8.35V289.776z"/>
				<path fill="#FFFFFF" d="M115.971,296.427h-8.291V253.77h8.291V296.427z"/>
				<path fill="#FFFFFF" d="M145.561,277.706h-14.326v12.07h16.846v6.649h-25.195V253.77h25.137v6.649h-16.787v10.636h14.326
					L145.561,277.706L145.561,277.706z"/>
				<path fill="#FFFFFF" d="M160.766,279.464v16.964h-8.32V253.8h13.916c4.199,0,7.495,1.108,9.888,3.325
					c2.392,2.217,3.589,5.298,3.589,9.243c0,2.228-0.498,4.146-1.494,5.757c-0.996,1.611-2.451,2.896-4.365,3.854
					c2.187,0.742,3.765,1.973,4.731,3.69c0.966,1.719,1.45,3.867,1.45,6.445v3.018c0,1.173,0.136,2.428,0.41,3.766
					c0.273,1.338,0.751,2.31,1.436,2.915v0.615h-8.613c-0.684-0.625-1.113-1.642-1.289-3.048c-0.176-1.405-0.264-2.842-0.264-4.307
					v-2.9c0-2.129-0.435-3.778-1.304-4.95s-2.114-1.759-3.735-1.759H160.766L160.766,279.464z M160.766,272.813h5.566
					c1.699,0,2.988-0.519,3.867-1.554c0.879-1.034,1.318-2.51,1.318-4.424c0-1.953-0.439-3.506-1.318-4.657
					c-0.879-1.152-2.158-1.729-3.838-1.729h-5.596L160.766,272.813L160.766,272.813z"/>
				<path fill="#FFFFFF" d="M197.124,253.77l7.646,31.317h0.176l7.734-31.317h10.869v42.656h-8.291v-12.394l0.703-16.582
					l-0.176-0.029l-8.144,29.005h-5.537l-8.057-28.771l-0.176,0.029l0.732,16.348v12.394h-8.291V253.77H197.124z"/>
				<path fill="#FFFFFF" d="M252.523,277.706h-14.326v12.07h16.846v6.649h-25.195V253.77h25.137v6.649h-16.787v10.636h14.326
					V277.706L252.523,277.706z"/>
				<path fill="#FFFFFF" d="M280.883,289.776h15.586v6.649h-23.936V253.77h8.35V289.776z"/>
				<path fill="#FFFFFF" d="M323.305,277.706h-14.325v12.07h16.846v6.649H300.63V253.77h25.137v6.649H308.98v10.636h14.325
					L323.305,277.706L323.305,277.706z"/>
				<path fill="#FFFFFF" d="M358.783,280.987h0.176l4.6-27.217h8.086l-8.231,42.655h-7.764l-6.007-26.133h-0.176l-5.947,26.133
					h-7.733l-8.232-42.655h8.086l4.601,27.217h0.176l6.152-27.217h5.977L358.783,280.987z"/>
				<path fill="#FFFFFF" d="M384.242,296.427h-8.291V253.77h8.291V296.427z"/>
				<path fill="#FFFFFF" d="M410.111,285.294c0-1.66-0.431-2.974-1.289-3.939c-0.859-0.966-2.373-1.919-4.541-2.856
					c-4.435-1.543-7.758-3.296-9.976-5.259c-2.217-1.963-3.325-4.712-3.325-8.247c0-3.496,1.288-6.343,3.866-8.54
					s5.869-3.296,9.873-3.296c4.063,0,7.363,1.226,9.902,3.677s3.77,5.542,3.691,9.272l-0.06,0.176h-8.086
					c0-1.953-0.488-3.535-1.465-4.746c-0.978-1.211-2.354-1.816-4.131-1.816c-1.66,0-2.953,0.504-3.881,1.51
					c-0.929,1.006-1.394,2.271-1.394,3.794c0,1.406,0.519,2.563,1.553,3.472c1.035,0.909,2.832,1.919,5.392,3.032
					c4.043,1.367,7.086,3.101,9.127,5.2c2.041,2.099,3.061,4.937,3.061,8.511c0,3.691-1.229,6.582-3.69,8.672
					s-5.732,3.135-9.814,3.135c-4.063,0-7.582-1.187-10.561-3.56c-2.979-2.373-4.42-5.776-4.322-10.21l0.059-0.176h8.115
					c0,2.637,0.558,4.53,1.67,5.684c1.113,1.153,2.793,1.729,5.039,1.729c1.758,0,3.063-0.47,3.912-1.406
					C409.686,288.168,410.111,286.895,410.111,285.294z"/>
			</g>
			<g>
				<path fill="#FFFFFF" d="M49.422,352.789c-0.586,1.031-1.538,1.957-2.856,2.777s-3.003,1.229-5.054,1.229
					c-2.684,0-4.846-0.813-6.486-2.442c-1.64-1.629-2.461-3.949-2.461-6.961v-7.595c0-2.965,0.779-5.262,2.338-6.891
					c1.559-1.629,3.627-2.443,6.205-2.443c2.613,0,4.611,0.659,5.994,1.979s2.121,3.167,2.215,5.546l-0.035,0.105h-3.375
					c-0.059-1.605-0.478-2.827-1.257-3.665c-0.779-0.839-1.942-1.258-3.489-1.258c-1.559,0-2.789,0.562-3.691,1.683
					c-0.902,1.121-1.354,2.75-1.354,4.886v7.642c0,2.185,0.483,3.849,1.45,4.992c0.967,1.145,2.282,1.717,3.946,1.717
					c1.219,0,2.165-0.208,2.839-0.623c0.674-0.416,1.175-0.946,1.503-1.592v-5.817h-4.377v-2.584h7.945V352.789z"/>
				<path fill="#FFFFFF" d="M60.742,356.797c-2.262,0-4.072-0.784-5.432-2.354s-2.039-3.58-2.039-6.029v-2.776
					c0-2.484,0.665-4.535,1.995-6.152s3.021-2.426,5.071-2.426c2.156,0,3.814,0.734,4.975,2.206c1.161,1.471,1.74,3.447,1.74,5.933
					v2.461h-10.23v0.756c0,1.642,0.36,2.997,1.081,4.069c0.721,1.072,1.743,1.607,3.067,1.607c0.984,0,1.828-0.154,2.531-0.466
					c0.703-0.311,1.371-0.765,2.004-1.361l1.125,2.215c-0.598,0.68-1.4,1.235-2.408,1.67
					C63.214,356.582,62.055,356.797,60.742,356.797z M60.338,339.763c-1.031,0-1.857,0.504-2.479,1.513s-0.967,2.286-1.037,3.831
					h6.697v-0.727c0-1.355-0.27-2.465-0.809-3.325C62.171,340.194,61.381,339.763,60.338,339.763z M61.393,330.025h3.973
					l0.035,0.088l-4.184,4.588h-2.848L61.393,330.025z"/>
				<path fill="#FFFFFF" d="M69.514,345.722c0-2.521,0.659-4.595,1.978-6.224c1.319-1.629,3.126-2.442,5.423-2.442
					c2.285,0,4.09,0.812,5.414,2.435c1.324,1.623,1.986,3.7,1.986,6.231v2.426c0,2.543-0.659,4.62-1.978,6.23
					c-1.319,1.611-3.12,2.417-5.405,2.417c-2.309,0-4.122-0.806-5.44-2.417c-1.318-1.61-1.978-3.688-1.978-6.23V345.722z
					 M73.082,348.134c0,1.738,0.316,3.166,0.949,4.282c0.633,1.116,1.6,1.674,2.9,1.674c1.266,0,2.218-0.558,2.856-1.674
					c0.638-1.116,0.958-2.544,0.958-4.282v-2.432c0-1.715-0.319-3.134-0.958-4.256c-0.639-1.121-1.597-1.683-2.874-1.683
					c-1.289,0-2.25,0.559-2.883,1.674c-0.633,1.116-0.949,2.538-0.949,4.265L73.082,348.134L73.082,348.134z"/>
				<path fill="#FFFFFF" d="M90.959,337.408l0.193,2.584c0.516-0.938,1.172-1.661,1.969-2.171s1.729-0.765,2.795-0.765
					c1.043,0,1.939,0.29,2.689,0.869c0.75,0.58,1.318,1.463,1.705,2.646c0.492-1.102,1.148-1.963,1.969-2.584
					c0.821-0.621,1.793-0.932,2.918-0.932c1.617,0,2.892,0.665,3.823,1.994c0.931,1.33,1.397,3.354,1.397,6.073v11.303h-3.568
					v-11.319c0-1.945-0.24-3.312-0.721-4.097c-0.481-0.784-1.189-1.178-2.127-1.178c-0.809,0-1.485,0.309-2.03,0.923
					c-0.545,0.615-0.94,1.434-1.187,2.452c-0.012-0.094-0.006,0.057,0.018,0.448c0.024,0.392,0.035,0.677,0.035,0.853v11.918h-3.551
					v-11.319c0-1.888-0.246-3.237-0.738-4.052c-0.492-0.815-1.207-1.223-2.145-1.223c-0.75,0-1.389,0.208-1.916,0.624
					c-0.527,0.416-0.938,0.993-1.23,1.731v14.237h-3.551v-19.02h3.253V337.408z"/>
				<path fill="#FFFFFF" d="M124.199,356.427c-0.129-0.435-0.234-0.858-0.316-1.274s-0.135-0.835-0.158-1.257
					c-0.527,0.854-1.189,1.553-1.986,2.092c-0.797,0.539-1.682,0.809-2.654,0.809c-1.605,0-2.862-0.507-3.771-1.521
					s-1.362-2.37-1.362-4.069c0-1.815,0.618-3.243,1.854-4.279c1.236-1.037,2.974-1.557,5.212-1.557h2.654v-1.938
					c0-1.152-0.258-2.053-0.773-2.698c-0.515-0.646-1.248-0.97-2.197-0.97c-0.855,0-1.544,0.291-2.065,0.873
					c-0.521,0.583-0.782,1.311-0.782,2.184l-3.393-0.018l-0.053-0.105c-0.059-1.469,0.527-2.776,1.758-3.922
					c1.231-1.146,2.818-1.719,4.764-1.719c1.875,0,3.396,0.554,4.562,1.661c1.166,1.106,1.749,2.687,1.749,4.736v8.824
					c0,0.738,0.044,1.45,0.132,2.136c0.088,0.687,0.231,1.356,0.431,2.014L124.199,356.427L124.199,356.427z M119.893,354.09
					c0.832,0,1.591-0.247,2.276-0.741c0.685-0.495,1.187-1.113,1.503-1.855v-3.906h-2.707c-1.09,0-1.937,0.352-2.54,1.053
					c-0.603,0.7-0.905,1.558-0.905,2.57c0,0.86,0.205,1.557,0.615,2.086C118.545,353.826,119.131,354.09,119.893,354.09z"/>
				<path fill="#FFFFFF" d="M135.854,332.679v4.729h2.971v2.549h-2.971v11.32c0,0.984,0.146,1.685,0.439,2.101
					s0.674,0.624,1.143,0.624c0.281,0,0.542-0.018,0.782-0.053c0.24-0.035,0.524-0.088,0.853-0.158l0.369,2.461
					c-0.398,0.164-0.847,0.296-1.345,0.396c-0.498,0.1-1.011,0.148-1.538,0.148c-1.348,0-2.394-0.441-3.138-1.326
					c-0.744-0.886-1.116-2.282-1.116-4.192v-11.32h-2.479v-2.549h2.479v-4.729L135.854,332.679L135.854,332.679z"/>
				<path fill="#FFFFFF" d="M146.137,332.416h-3.568v-3.41h3.568V332.416z M146.137,356.427h-3.568v-19.021h3.568V356.427z"/>
				<path fill="#FFFFFF" d="M157.07,354.09c0.891,0,1.641-0.343,2.25-1.027c0.609-0.686,0.914-1.604,0.914-2.751h3.199l0.035,0.104
					c0.047,1.793-0.56,3.306-1.819,4.535c-1.259,1.23-2.786,1.846-4.579,1.846c-2.367,0-4.181-0.803-5.44-2.407
					c-1.259-1.605-1.89-3.65-1.89-6.136v-2.618c0-2.484,0.63-4.535,1.89-6.152c1.26-1.617,3.067-2.426,5.423-2.426
					c1.922,0,3.483,0.642,4.685,1.925c1.202,1.283,1.784,2.943,1.749,4.982l-0.053,0.105h-3.199c0-1.276-0.29-2.313-0.87-3.11
					c-0.58-0.797-1.351-1.195-2.312-1.195c-1.359,0-2.323,0.553-2.892,1.655c-0.568,1.104-0.853,2.503-0.853,4.194v2.625
					c0,1.716,0.284,3.119,0.853,4.212C154.73,353.544,155.699,354.09,157.07,354.09z"/>
				<path fill="#FFFFFF" d="M170.447,332.416h-3.568v-3.41h3.568V332.416z M170.447,356.427h-3.568v-19.021h3.568V356.427z"/>
				<path fill="#FFFFFF" d="M181.645,356.797c-2.262,0-4.072-0.784-5.432-2.354c-1.36-1.57-2.039-3.58-2.039-6.029v-2.776
					c0-2.484,0.665-4.535,1.995-6.152s3.021-2.426,5.071-2.426c2.156,0,3.814,0.734,4.975,2.206c1.161,1.471,1.74,3.447,1.74,5.933
					v2.461h-10.23v0.756c0,1.642,0.36,2.997,1.081,4.069c0.721,1.072,1.743,1.607,3.067,1.607c0.984,0,1.828-0.154,2.531-0.466
					c0.703-0.311,1.371-0.765,2.004-1.361l1.125,2.215c-0.598,0.68-1.4,1.235-2.408,1.67
					C184.117,356.582,182.957,356.797,181.645,356.797z M181.24,339.763c-1.031,0-1.857,0.504-2.479,1.513
					c-0.622,1.009-0.967,2.286-1.037,3.831h6.697v-0.727c0-1.355-0.27-2.465-0.809-3.325
					C183.073,340.194,182.283,339.763,181.24,339.763z"/>
				<path fill="#FFFFFF" d="M194.354,337.408l0.193,2.813c0.527-0.996,1.195-1.772,2.004-2.329c0.809-0.558,1.723-0.835,2.742-0.835
					c1.664,0,2.959,0.614,3.885,1.846c0.926,1.23,1.389,3.141,1.389,5.729v11.796h-3.568v-11.761c0-1.77-0.252-3.018-0.756-3.744
					c-0.504-0.726-1.266-1.09-2.285-1.09c-0.727,0-1.371,0.227-1.934,0.678c-0.563,0.45-1.02,1.063-1.371,1.837v14.08h-3.568
					v-19.021H194.354L194.354,337.408z"/>
				<path fill="#FFFFFF" d="M216.889,356.427v-25.595h7.031c2.719,0,4.938,1.025,6.653,3.076s2.575,4.688,2.575,7.91v3.639
					c0,3.234-0.858,5.871-2.575,7.91c-1.718,2.039-3.935,3.06-6.653,3.06H216.889z M220.457,333.541v20.181h3.34
					c1.793,0,3.208-0.77,4.245-2.308s1.556-3.526,1.556-5.97v-3.68c0-2.419-0.519-4.395-1.556-5.927
					c-1.037-1.531-2.452-2.298-4.245-2.298L220.457,333.541L220.457,333.541z"/>
				<path fill="#FFFFFF" d="M243.607,356.797c-2.262,0-4.072-0.784-5.433-2.354s-2.039-3.58-2.039-6.029v-2.776
					c0-2.484,0.665-4.535,1.995-6.152s3.021-2.426,5.071-2.426c2.155,0,3.813,0.734,4.975,2.206c1.161,1.471,1.74,3.447,1.74,5.933
					v2.461h-10.229v0.756c0,1.642,0.359,2.997,1.08,4.069s1.743,1.607,3.067,1.607c0.983,0,1.828-0.154,2.531-0.466
					c0.702-0.311,1.37-0.765,2.004-1.361l1.125,2.215c-0.599,0.68-1.399,1.235-2.408,1.67
					C246.079,356.582,244.92,356.797,243.607,356.797z M243.203,339.763c-1.031,0-1.857,0.504-2.479,1.513
					c-0.623,1.009-0.968,2.286-1.037,3.831h6.696v-0.727c0-1.355-0.271-2.465-0.809-3.325
					C245.036,340.194,244.246,339.763,243.203,339.763z M244.258,330.025h3.973l0.035,0.088l-4.184,4.588h-2.848L244.258,330.025z"
					/>
				<path fill="#FFFFFF" d="M258.373,350.715l0.299,1.478h0.105l0.299-1.478l3.234-13.307h3.674l-5.695,19.021h-3.146l-5.729-19.021
					h3.69L258.373,350.715z"/>
				<path fill="#FFFFFF" d="M275.178,356.797c-2.262,0-4.072-0.784-5.432-2.354c-1.36-1.57-2.039-3.58-2.039-6.029v-2.776
					c0-2.484,0.665-4.535,1.995-6.152s3.021-2.426,5.071-2.426c2.156,0,3.813,0.734,4.975,2.206c1.161,1.471,1.74,3.447,1.74,5.933
					v2.461h-10.23v0.756c0,1.642,0.36,2.997,1.081,4.069c0.722,1.072,1.743,1.607,3.067,1.607c0.984,0,1.828-0.154,2.531-0.466
					c0.703-0.311,1.371-0.765,2.004-1.361l1.125,2.215c-0.599,0.68-1.4,1.235-2.408,1.67
					C277.65,356.582,276.49,356.797,275.178,356.797z M274.773,339.763c-1.031,0-1.857,0.504-2.479,1.513s-0.967,2.286-1.037,3.831
					h6.697v-0.727c0-1.355-0.271-2.465-0.81-3.325C276.605,340.194,275.816,339.763,274.773,339.763z"/>
				<path fill="#FFFFFF" d="M288.449,356.427h-3.568v-27.423h3.568V356.427z"/>
				<path fill="#FFFFFF" d="M292.07,345.722c0-2.521,0.658-4.595,1.978-6.224s3.126-2.442,5.423-2.442
					c2.285,0,4.09,0.812,5.414,2.435s1.986,3.7,1.986,6.231v2.426c0,2.543-0.659,4.62-1.979,6.23
					c-1.318,1.611-3.119,2.417-5.404,2.417c-2.309,0-4.122-0.806-5.44-2.417c-1.317-1.61-1.978-3.688-1.978-6.23V345.722z
					 M295.639,348.134c0,1.738,0.316,3.166,0.949,4.282s1.601,1.674,2.9,1.674c1.266,0,2.218-0.558,2.855-1.674
					c0.639-1.116,0.958-2.544,0.958-4.282v-2.432c0-1.715-0.318-3.134-0.958-4.256c-0.639-1.121-1.597-1.683-2.874-1.683
					c-1.289,0-2.249,0.559-2.883,1.674c-0.633,1.116-0.948,2.538-0.948,4.265V348.134L295.639,348.134z"/>
				<path fill="#FFFFFF" d="M324.326,348.5c0,2.508-0.551,4.519-1.652,6.029c-1.101,1.511-2.631,2.268-4.588,2.268
					c-0.926,0-1.74-0.182-2.443-0.545c-0.702-0.362-1.307-0.896-1.811-1.6v9.088h-3.568v-26.332h3.183l0.229,2.18
					c0.504-0.809,1.119-1.433,1.846-1.872c0.728-0.438,1.57-0.658,2.531-0.658c1.98,0,3.521,0.832,4.623,2.496
					c1.103,1.663,1.652,3.866,1.652,6.608L324.326,348.5L324.326,348.5z M320.758,346.162c0-1.863-0.308-3.384-0.923-4.562
					c-0.615-1.179-1.532-1.768-2.751-1.768c-0.762,0-1.412,0.217-1.951,0.65c-0.539,0.433-0.973,1.024-1.301,1.774v9.615
					c0.316,0.715,0.744,1.263,1.283,1.645c0.539,0.381,1.201,0.57,1.985,0.57c1.23,0,2.147-0.513,2.751-1.538
					c0.604-1.024,0.905-2.376,0.905-4.052L320.758,346.162L320.758,346.162z"/>
				<path fill="#FFFFFF" d="M341.816,348.5c0,2.508-0.552,4.519-1.652,6.029s-2.631,2.268-4.588,2.268
					c-0.926,0-1.74-0.182-2.443-0.545c-0.703-0.362-1.307-0.896-1.811-1.6v9.088h-3.568v-26.332h3.182l0.229,2.18
					c0.504-0.809,1.119-1.433,1.846-1.872c0.728-0.438,1.57-0.658,2.531-0.658c1.98,0,3.521,0.832,4.623,2.496
					c1.102,1.663,1.652,3.866,1.652,6.608L341.816,348.5L341.816,348.5z M338.248,346.162c0-1.863-0.308-3.384-0.923-4.562
					c-0.615-1.179-1.532-1.768-2.751-1.768c-0.763,0-1.412,0.217-1.951,0.65c-0.539,0.433-0.973,1.024-1.301,1.774v9.615
					c0.315,0.715,0.744,1.263,1.282,1.645c0.539,0.381,1.201,0.57,1.986,0.57c1.23,0,2.147-0.513,2.751-1.538
					c0.604-1.024,0.905-2.376,0.905-4.052L338.248,346.162L338.248,346.162z"/>
				<path fill="#FFFFFF" d="M352.117,356.797c-2.262,0-4.072-0.784-5.433-2.354c-1.359-1.57-2.039-3.58-2.039-6.029v-2.776
					c0-2.484,0.665-4.535,1.995-6.152s3.021-2.426,5.071-2.426c2.156,0,3.814,0.734,4.975,2.206c1.161,1.471,1.74,3.447,1.74,5.933
					v2.461h-10.229v0.756c0,1.642,0.359,2.997,1.081,4.069c0.721,1.072,1.742,1.607,3.066,1.607c0.984,0,1.828-0.154,2.531-0.466
					c0.703-0.311,1.371-0.765,2.004-1.361l1.125,2.215c-0.598,0.68-1.4,1.235-2.408,1.67
					C354.589,356.582,353.43,356.797,352.117,356.797z M351.713,339.763c-1.031,0-1.856,0.504-2.479,1.513s-0.968,2.286-1.037,3.831
					h6.696v-0.727c0-1.355-0.27-2.465-0.809-3.325C353.546,340.194,352.756,339.763,351.713,339.763z"/>
				<path fill="#FFFFFF" d="M371.629,353.879c-0.504,0.938-1.147,1.658-1.934,2.162s-1.688,0.756-2.707,0.756
					c-1.724,0-3.064-0.661-4.025-1.985s-1.44-3.381-1.44-6.17v-11.232h3.551v11.269c0,1.944,0.23,3.324,0.693,4.14
					c0.464,0.814,1.157,1.222,2.083,1.222c0.88,0,1.614-0.205,2.206-0.615c0.593-0.409,1.063-0.995,1.415-1.758V337.41h3.568v19.021
					h-3.182L371.629,353.879z"/>
				<path fill="#FFFFFF" d="M387.273,340.414l-1.671-0.088c-0.737,0-1.351,0.223-1.837,0.668c-0.485,0.445-0.857,1.072-1.115,1.881
					v13.554h-3.568v-19.021h3.252l0.264,2.865c0.398-1.008,0.92-1.796,1.564-2.364c0.644-0.568,1.389-0.853,2.231-0.853
					c0.234,0,0.476,0.021,0.722,0.062s0.438,0.091,0.58,0.149L387.273,340.414z"/>
			</g>
			<g>
				<path fill="#FFFFFF" d="M67.396,312.64c0,0,1.075-0.047,3.094-0.138c2.018-0.083,4.978-0.205,8.744-0.356
					c7.533-0.279,18.295-0.644,31.209-0.938c6.457-0.152,13.452-0.321,20.851-0.431c7.399-0.122,15.201-0.276,23.272-0.336
					c8.07-0.065,16.412-0.206,24.887-0.216c8.475-0.029,17.084-0.062,25.693-0.087c8.608,0.025,17.219,0.057,25.692,0.084
					c8.477,0.001,16.814,0.146,24.889,0.213c8.069,0.061,15.871,0.209,23.271,0.335c7.396,0.104,14.395,0.271,20.851,0.431
					c12.914,0.294,23.678,0.658,31.209,0.938c3.77,0.152,6.729,0.275,8.744,0.358c2.021,0.089,3.094,0.139,3.094,0.139
					s-1.073,0.047-3.094,0.136c-2.018,0.083-4.978,0.206-8.744,0.358c-7.531,0.28-18.295,0.646-31.209,0.938
					c-6.456,0.158-13.45,0.323-20.851,0.431c-7.398,0.126-15.201,0.274-23.271,0.335c-8.072,0.064-16.412,0.212-24.889,0.213
					c-8.477,0.027-17.084,0.059-25.692,0.085c-8.609-0.026-17.22-0.059-25.693-0.088c-8.475-0.01-16.815-0.147-24.887-0.216
					c-8.071-0.06-15.874-0.214-23.272-0.336c-7.397-0.104-14.394-0.272-20.851-0.431c-12.914-0.294-23.676-0.655-31.209-0.938
					c-3.768-0.151-6.727-0.273-8.744-0.356C68.471,312.687,67.396,312.64,67.396,312.64z"/>
			</g>
		</g>
	</g>
</g>
</svg>
