<?xml version="1.0" encoding="utf-8"?>
<!-- Generator: Adobe Illustrator 16.0.0, SVG Export Plug-In . SVG Version: 6.00 Build 0)  -->
<!DOCTYPE svg PUBLIC "-//W3C//DTD SVG 1.1//EN" "http://www.w3.org/Graphics/SVG/1.1/DTD/svg11.dtd">
<svg version="1.1" id="Layer_1" xmlns="http://www.w3.org/2000/svg" xmlns:xlink="http://www.w3.org/1999/xlink" x="0px" y="0px"
	 width="419.531px" height="595.281px" viewBox="0 0 419.531 595.281" enable-background="new 0 0 419.531 595.281"
	 xml:space="preserve">
<g>
	<text transform="matrix(1 0 0 1 3.7261 296.4265)" font-family="'RobotoCondensed-Bold'" font-size="60">VILLIERME LEWIS</text>
	<text transform="matrix(1 0 0 1 35.3916 356.4275)" font-family="'RobotoCondensed-Regular'" font-size="36">Géomaticien Développeur</text>
	<g>
		<path d="M72.015,312.64c0,0,1.076-0.047,3.094-0.135c2.018-0.083,4.978-0.205,8.744-0.359c7.533-0.279,18.295-0.641,31.209-0.935
			c6.457-0.155,13.452-0.324,20.851-0.431c7.399-0.122,15.201-0.276,23.272-0.336c8.071-0.065,16.412-0.206,24.887-0.216
			c8.475-0.029,17.084-0.059,25.693-0.087c8.609,0.028,17.219,0.057,25.693,0.084c8.475,0.001,16.815,0.148,24.887,0.213
			c8.071,0.061,15.873,0.209,23.272,0.335c7.398,0.107,14.394,0.272,20.851,0.431c12.914,0.294,23.676,0.658,31.209,0.938
			c3.767,0.155,6.727,0.278,8.744,0.361c2.018,0.089,3.094,0.136,3.094,0.136s-1.076,0.047-3.094,0.136
			c-2.018,0.083-4.978,0.206-8.744,0.361c-7.533,0.28-18.295,0.645-31.209,0.938c-6.457,0.158-13.452,0.323-20.851,0.431
			c-7.399,0.126-15.201,0.274-23.272,0.335c-8.071,0.064-16.412,0.212-24.887,0.213c-8.475,0.027-17.084,0.056-25.693,0.084
			c-8.609-0.028-17.219-0.058-25.693-0.087c-8.475-0.01-16.815-0.15-24.887-0.216c-8.071-0.06-15.874-0.214-23.272-0.336
			c-7.398-0.106-14.394-0.275-20.851-0.431c-12.914-0.294-23.676-0.655-31.209-0.935c-3.767-0.154-6.726-0.276-8.744-0.359
			C73.091,312.687,72.015,312.64,72.015,312.64z"/>
	</g>
</g>
</svg>
